<mxfile host="app.diagrams.net" modified="2023-10-13T11:22:42.022Z" agent="Mozilla/5.0 (Windows NT 10.0; Win64; x64) AppleWebKit/537.36 (KHTML, like Gecko) Chrome/117.0.0.0 Safari/537.36" etag="yb9Pl6bdLwpkwqh3gWEo" version="22.0.4" type="device">
  <diagram id="C5RBs43oDa-KdzZeNtuy" name="Page-1">
    <mxGraphModel dx="1050" dy="574" grid="1" gridSize="10" guides="1" tooltips="1" connect="1" arrows="1" fold="1" page="1" pageScale="1" pageWidth="827" pageHeight="1169" background="#000000" math="0" shadow="0">
      <root>
        <mxCell id="WIyWlLk6GJQsqaUBKTNV-0" />
        <mxCell id="WIyWlLk6GJQsqaUBKTNV-1" parent="WIyWlLk6GJQsqaUBKTNV-0" />
        <mxCell id="WIyWlLk6GJQsqaUBKTNV-2" value="" style="rounded=0;html=1;jettySize=auto;orthogonalLoop=1;fontSize=11;endArrow=block;endFill=0;endSize=8;strokeWidth=1;shadow=0;labelBackgroundColor=none;edgeStyle=orthogonalEdgeStyle;fillColor=#b0e3e6;strokeColor=#FFFFFF;fontColor=#FFFFFF;" parent="WIyWlLk6GJQsqaUBKTNV-1" source="EtrL1BCq7NWEh6Vtvc_A-0" target="WIyWlLk6GJQsqaUBKTNV-6" edge="1">
          <mxGeometry relative="1" as="geometry" />
        </mxCell>
        <mxCell id="WIyWlLk6GJQsqaUBKTNV-3" value="GO" style="rounded=1;whiteSpace=wrap;html=1;fontSize=12;glass=0;strokeWidth=1;shadow=0;fillColor=#000000;strokeColor=#FFFFFF;fontColor=#FFFFFF;" parent="WIyWlLk6GJQsqaUBKTNV-1" vertex="1">
          <mxGeometry x="190" y="60" width="120" height="40" as="geometry" />
        </mxCell>
        <mxCell id="WIyWlLk6GJQsqaUBKTNV-6" value="Нашлась ли пара has_pair = True" style="rhombus;whiteSpace=wrap;html=1;shadow=0;fontFamily=Helvetica;fontSize=12;align=center;strokeWidth=1;spacing=6;spacingTop=-4;fillColor=#000000;strokeColor=#FFFFFF;fontColor=#FFFFFF;" parent="WIyWlLk6GJQsqaUBKTNV-1" vertex="1">
          <mxGeometry x="180" y="240" width="140" height="100" as="geometry" />
        </mxCell>
        <mxCell id="EtrL1BCq7NWEh6Vtvc_A-1" value="" style="rounded=0;html=1;jettySize=auto;orthogonalLoop=1;fontSize=11;endArrow=block;endFill=0;endSize=8;strokeWidth=1;shadow=0;labelBackgroundColor=none;edgeStyle=orthogonalEdgeStyle;fillColor=#b0e3e6;strokeColor=#FFFFFF;fontColor=#FFFFFF;" parent="WIyWlLk6GJQsqaUBKTNV-1" source="WIyWlLk6GJQsqaUBKTNV-3" target="EtrL1BCq7NWEh6Vtvc_A-0" edge="1">
          <mxGeometry relative="1" as="geometry">
            <mxPoint x="250" y="100" as="sourcePoint" />
            <mxPoint x="250" y="220" as="targetPoint" />
          </mxGeometry>
        </mxCell>
        <mxCell id="EtrL1BCq7NWEh6Vtvc_A-0" value="Функция обработчика для поиска пары search_pair(user)" style="rounded=0;whiteSpace=wrap;html=1;fillColor=#000000;strokeColor=#FFFFFF;fontColor=#FFFFFF;" parent="WIyWlLk6GJQsqaUBKTNV-1" vertex="1">
          <mxGeometry x="185" y="140" width="130" height="70" as="geometry" />
        </mxCell>
        <mxCell id="EtrL1BCq7NWEh6Vtvc_A-5" value="&lt;span style=&quot;font-family: Helvetica; font-size: 11px; font-style: normal; font-variant-ligatures: normal; font-variant-caps: normal; font-weight: 400; letter-spacing: normal; orphans: 2; text-align: center; text-indent: 0px; text-transform: none; widows: 2; word-spacing: 0px; -webkit-text-stroke-width: 0px; text-decoration-thickness: initial; text-decoration-style: initial; text-decoration-color: initial; float: none; display: inline !important;&quot;&gt;No&lt;/span&gt;" style="text;whiteSpace=wrap;html=1;fillColor=none;gradientColor=default;strokeColor=none;labelBackgroundColor=none;fontColor=#FFFFFF;" parent="WIyWlLk6GJQsqaUBKTNV-1" vertex="1">
          <mxGeometry x="160" y="265" width="50" height="40" as="geometry" />
        </mxCell>
        <mxCell id="EtrL1BCq7NWEh6Vtvc_A-10" value="" style="endArrow=classic;html=1;rounded=0;exitX=0;exitY=0.5;exitDx=0;exitDy=0;entryX=0.5;entryY=1;entryDx=0;entryDy=0;fillColor=#b0e3e6;strokeColor=#FFFFFF;fontColor=#FFFFFF;" parent="WIyWlLk6GJQsqaUBKTNV-1" source="WIyWlLk6GJQsqaUBKTNV-6" edge="1">
          <mxGeometry width="50" height="50" relative="1" as="geometry">
            <mxPoint x="150" y="340" as="sourcePoint" />
            <mxPoint x="85" y="265" as="targetPoint" />
            <Array as="points">
              <mxPoint x="85" y="290" />
            </Array>
          </mxGeometry>
        </mxCell>
        <mxCell id="EtrL1BCq7NWEh6Vtvc_A-13" value="" style="endArrow=classic;html=1;rounded=0;exitX=0.5;exitY=0;exitDx=0;exitDy=0;entryX=0;entryY=0.5;entryDx=0;entryDy=0;fillColor=#b0e3e6;strokeColor=#FFFFFF;fontColor=#FFFFFF;" parent="WIyWlLk6GJQsqaUBKTNV-1" target="EtrL1BCq7NWEh6Vtvc_A-0" edge="1">
          <mxGeometry width="50" height="50" relative="1" as="geometry">
            <mxPoint x="85" y="195" as="sourcePoint" />
            <mxPoint x="460" y="230" as="targetPoint" />
            <Array as="points">
              <mxPoint x="85" y="175" />
            </Array>
          </mxGeometry>
        </mxCell>
        <mxCell id="EtrL1BCq7NWEh6Vtvc_A-14" value="" style="endArrow=classic;html=1;rounded=0;exitX=1;exitY=0.5;exitDx=0;exitDy=0;fillColor=#b0e3e6;strokeColor=#FFFFFF;fontColor=#FFFFFF;" parent="WIyWlLk6GJQsqaUBKTNV-1" source="WIyWlLk6GJQsqaUBKTNV-6" edge="1">
          <mxGeometry width="50" height="50" relative="1" as="geometry">
            <mxPoint x="390" y="320" as="sourcePoint" />
            <mxPoint x="380" y="320" as="targetPoint" />
            <Array as="points">
              <mxPoint x="380" y="290" />
            </Array>
          </mxGeometry>
        </mxCell>
        <mxCell id="EtrL1BCq7NWEh6Vtvc_A-15" value="Функция обработчика для выдачи контактов give_contacts()" style="rounded=0;whiteSpace=wrap;html=1;fillColor=#000000;strokeColor=#FFFFFF;fontColor=#FFFFFF;" parent="WIyWlLk6GJQsqaUBKTNV-1" vertex="1">
          <mxGeometry x="315" y="320" width="130" height="70" as="geometry" />
        </mxCell>
        <mxCell id="EtrL1BCq7NWEh6Vtvc_A-16" value="Обработчик попробовать ешё раз&lt;br style=&quot;border-color: var(--border-color);&quot;&gt;button" style="shape=process;whiteSpace=wrap;html=1;backgroundOutline=1;fillColor=#000000;strokeColor=#FFFFFF;fontColor=#FFFFFF;" parent="WIyWlLk6GJQsqaUBKTNV-1" vertex="1">
          <mxGeometry x="20" y="195" width="130" height="70" as="geometry" />
        </mxCell>
        <mxCell id="EtrL1BCq7NWEh6Vtvc_A-18" value="Name&lt;br&gt;Profession&lt;br&gt;Telegram&lt;br&gt;message" style="rounded=0;whiteSpace=wrap;html=1;fillColor=#000000;strokeColor=#FFFFFF;fontColor=#FFFFFF;" parent="WIyWlLk6GJQsqaUBKTNV-1" vertex="1">
          <mxGeometry x="315" y="430" width="130" height="70" as="geometry" />
        </mxCell>
        <mxCell id="EtrL1BCq7NWEh6Vtvc_A-19" value="" style="endArrow=classic;html=1;rounded=0;exitX=0.5;exitY=1;exitDx=0;exitDy=0;entryX=0.5;entryY=0;entryDx=0;entryDy=0;fillColor=#b0e3e6;strokeColor=#FFFFFF;fontColor=#FFFFFF;" parent="WIyWlLk6GJQsqaUBKTNV-1" source="EtrL1BCq7NWEh6Vtvc_A-15" target="EtrL1BCq7NWEh6Vtvc_A-18" edge="1">
          <mxGeometry width="50" height="50" relative="1" as="geometry">
            <mxPoint x="390" y="320" as="sourcePoint" />
            <mxPoint x="440" y="270" as="targetPoint" />
          </mxGeometry>
        </mxCell>
        <mxCell id="EtrL1BCq7NWEh6Vtvc_A-20" value="search_pair(user)" style="rounded=0;whiteSpace=wrap;html=1;fillColor=#000000;strokeColor=#FFFFFF;fontColor=#FFFFFF;" parent="WIyWlLk6GJQsqaUBKTNV-1" vertex="1">
          <mxGeometry x="550" y="60" width="120" height="60" as="geometry" />
        </mxCell>
        <mxCell id="EtrL1BCq7NWEh6Vtvc_A-23" value="" style="endArrow=classic;html=1;rounded=0;exitX=0.5;exitY=1;exitDx=0;exitDy=0;fillColor=#b0e3e6;strokeColor=#FFFFFF;fontColor=#FFFFFF;" parent="WIyWlLk6GJQsqaUBKTNV-1" source="EtrL1BCq7NWEh6Vtvc_A-20" edge="1">
          <mxGeometry width="50" height="50" relative="1" as="geometry">
            <mxPoint x="390" y="320" as="sourcePoint" />
            <mxPoint x="610" y="160" as="targetPoint" />
          </mxGeometry>
        </mxCell>
        <mxCell id="EtrL1BCq7NWEh6Vtvc_A-24" value="Добавить юзеру&lt;br&gt;search_start_time" style="rounded=0;whiteSpace=wrap;html=1;fillColor=#000000;strokeColor=#FFFFFF;fontColor=#FFFFFF;" parent="WIyWlLk6GJQsqaUBKTNV-1" vertex="1">
          <mxGeometry x="550" y="160" width="120" height="60" as="geometry" />
        </mxCell>
        <mxCell id="EtrL1BCq7NWEh6Vtvc_A-27" value="" style="endArrow=classic;html=1;rounded=0;exitX=0.5;exitY=1;exitDx=0;exitDy=0;entryX=0.5;entryY=0;entryDx=0;entryDy=0;fillColor=#b0e3e6;strokeColor=#FFFFFF;fontColor=#FFFFFF;" parent="WIyWlLk6GJQsqaUBKTNV-1" source="EtrL1BCq7NWEh6Vtvc_A-24" target="EtrL1BCq7NWEh6Vtvc_A-49" edge="1">
          <mxGeometry width="50" height="50" relative="1" as="geometry">
            <mxPoint x="620" y="130" as="sourcePoint" />
            <mxPoint x="610" y="260" as="targetPoint" />
            <Array as="points" />
          </mxGeometry>
        </mxCell>
        <mxCell id="EtrL1BCq7NWEh6Vtvc_A-30" value="Кондидат найден?" style="rhombus;whiteSpace=wrap;html=1;shadow=0;fontFamily=Helvetica;fontSize=12;align=center;strokeWidth=1;spacing=6;spacingTop=-4;fillColor=#000000;strokeColor=#FFFFFF;fontColor=#FFFFFF;" parent="WIyWlLk6GJQsqaUBKTNV-1" vertex="1">
          <mxGeometry x="522.5" y="370" width="175" height="145" as="geometry" />
        </mxCell>
        <mxCell id="EtrL1BCq7NWEh6Vtvc_A-31" value="" style="endArrow=classic;html=1;rounded=0;exitX=1;exitY=0.5;exitDx=0;exitDy=0;entryX=0.5;entryY=0;entryDx=0;entryDy=0;fillColor=#b0e3e6;strokeColor=#FFFFFF;fontColor=#FFFFFF;" parent="WIyWlLk6GJQsqaUBKTNV-1" source="EtrL1BCq7NWEh6Vtvc_A-30" edge="1">
          <mxGeometry width="50" height="50" relative="1" as="geometry">
            <mxPoint x="697.5" y="450" as="sourcePoint" />
            <mxPoint x="735" y="500" as="targetPoint" />
            <Array as="points">
              <mxPoint x="735" y="443" />
            </Array>
          </mxGeometry>
        </mxCell>
        <mxCell id="EtrL1BCq7NWEh6Vtvc_A-33" value="&lt;span style=&quot;font-family: Helvetica; font-size: 11px; font-style: normal; font-variant-ligatures: normal; font-variant-caps: normal; font-weight: 400; letter-spacing: normal; orphans: 2; text-align: center; text-indent: 0px; text-transform: none; widows: 2; word-spacing: 0px; -webkit-text-stroke-width: 0px; text-decoration-thickness: initial; text-decoration-style: initial; text-decoration-color: initial; float: none; display: inline !important;&quot;&gt;Yes&lt;/span&gt;" style="text;whiteSpace=wrap;html=1;fillColor=none;gradientColor=default;strokeColor=none;fontColor=#FFFFFF;labelBackgroundColor=none;labelBorderColor=none;" parent="WIyWlLk6GJQsqaUBKTNV-1" vertex="1">
          <mxGeometry x="320" y="265" width="50" height="40" as="geometry" />
        </mxCell>
        <mxCell id="EtrL1BCq7NWEh6Vtvc_A-34" value="&lt;span style=&quot;font-family: Helvetica; font-size: 11px; font-style: normal; font-variant-ligatures: normal; font-variant-caps: normal; font-weight: 400; letter-spacing: normal; orphans: 2; text-align: center; text-indent: 0px; text-transform: none; widows: 2; word-spacing: 0px; -webkit-text-stroke-width: 0px; text-decoration-thickness: initial; text-decoration-style: initial; text-decoration-color: initial; float: none; display: inline !important;&quot;&gt;Yes&lt;/span&gt;" style="text;whiteSpace=wrap;html=1;fillColor=none;labelBackgroundColor=none;fontColor=#FFFFFF;" parent="WIyWlLk6GJQsqaUBKTNV-1" vertex="1">
          <mxGeometry x="697.5" y="415" width="50" height="40" as="geometry" />
        </mxCell>
        <mxCell id="EtrL1BCq7NWEh6Vtvc_A-40" value="Создание CreatedPair&lt;br&gt;make_pair()" style="rounded=0;whiteSpace=wrap;html=1;fillColor=#000000;strokeColor=#FFFFFF;fontColor=#FFFFFF;" parent="WIyWlLk6GJQsqaUBKTNV-1" vertex="1">
          <mxGeometry x="680" y="500" width="120" height="60" as="geometry" />
        </mxCell>
        <mxCell id="EtrL1BCq7NWEh6Vtvc_A-42" value="" style="endArrow=classic;html=1;rounded=0;exitX=0;exitY=0.5;exitDx=0;exitDy=0;entryX=0.5;entryY=0;entryDx=0;entryDy=0;fillColor=#b0e3e6;strokeColor=#FFFFFF;fontColor=#FFFFFF;" parent="WIyWlLk6GJQsqaUBKTNV-1" source="EtrL1BCq7NWEh6Vtvc_A-30" target="EtrL1BCq7NWEh6Vtvc_A-43" edge="1">
          <mxGeometry width="50" height="50" relative="1" as="geometry">
            <mxPoint x="390" y="530" as="sourcePoint" />
            <mxPoint x="490" y="390" as="targetPoint" />
            <Array as="points">
              <mxPoint x="510" y="443" />
            </Array>
          </mxGeometry>
        </mxCell>
        <mxCell id="EtrL1BCq7NWEh6Vtvc_A-43" value="return False" style="shape=parallelogram;perimeter=parallelogramPerimeter;whiteSpace=wrap;html=1;fixedSize=1;fillColor=#000000;strokeColor=#FFFFFF;fontColor=#FFFFFF;" parent="WIyWlLk6GJQsqaUBKTNV-1" vertex="1">
          <mxGeometry x="450" y="515" width="120" height="60" as="geometry" />
        </mxCell>
        <mxCell id="EtrL1BCq7NWEh6Vtvc_A-44" value="&lt;span style=&quot;font-family: Helvetica; font-size: 11px; font-style: normal; font-variant-ligatures: normal; font-variant-caps: normal; font-weight: 400; letter-spacing: normal; orphans: 2; text-align: center; text-indent: 0px; text-transform: none; widows: 2; word-spacing: 0px; -webkit-text-stroke-width: 0px; text-decoration-thickness: initial; text-decoration-style: initial; text-decoration-color: initial; float: none; display: inline !important;&quot;&gt;No&lt;/span&gt;" style="text;whiteSpace=wrap;html=1;fillColor=none;gradientColor=default;strokeColor=none;labelBackgroundColor=none;fontColor=#FFFFFF;" parent="WIyWlLk6GJQsqaUBKTNV-1" vertex="1">
          <mxGeometry x="510" y="415" width="50" height="40" as="geometry" />
        </mxCell>
        <mxCell id="EtrL1BCq7NWEh6Vtvc_A-49" value="&lt;font style=&quot;font-size: 10px;&quot;&gt;&lt;font style=&quot;font-size: 11px;&quot;&gt;Поиск кондидата для студенты&lt;/font&gt;&lt;span style=&quot;font-size: 8px;&quot;&gt;&amp;nbsp;&amp;nbsp;&lt;/span&gt;&lt;br&gt;&lt;span style=&quot;&quot;&gt;Recruiter.objects.filte(has_pair=False)&lt;br&gt;.exclude&lt;/span&gt;&lt;span style=&quot;&quot;&gt;(passedpair__itspecialist=itspecialist)&lt;br&gt;.first()&lt;/span&gt;&lt;/font&gt;" style="rounded=0;whiteSpace=wrap;html=1;fillColor=#000000;strokeColor=#FFFFFF;fontColor=#FFFFFF;" parent="WIyWlLk6GJQsqaUBKTNV-1" vertex="1">
          <mxGeometry x="522.5" y="260" width="175" height="80" as="geometry" />
        </mxCell>
        <mxCell id="EtrL1BCq7NWEh6Vtvc_A-51" value="" style="endArrow=classic;html=1;rounded=0;exitX=0.5;exitY=1;exitDx=0;exitDy=0;entryX=0.5;entryY=0;entryDx=0;entryDy=0;fillColor=#b0e3e6;strokeColor=#FFFFFF;fontColor=#FFFFFF;" parent="WIyWlLk6GJQsqaUBKTNV-1" target="EtrL1BCq7NWEh6Vtvc_A-30" edge="1">
          <mxGeometry width="50" height="50" relative="1" as="geometry">
            <mxPoint x="610" y="340" as="sourcePoint" />
            <mxPoint x="620" y="190" as="targetPoint" />
          </mxGeometry>
        </mxCell>
      </root>
    </mxGraphModel>
  </diagram>
</mxfile>
